M48
; DRILL file {KiCad (5.1.8)-1} date 12/13/22 18:59:27
; FORMAT={3:3/ absolute / metric / suppress leading zeros}
; #@! TF.CreationDate,2022-12-13T18:59:27+09:00
; #@! TF.GenerationSoftware,Kicad,Pcbnew,(5.1.8)-1
FMAT,2
METRIC,TZ
T1C0.400
T2C0.700
T3C0.760
T4C1.000
T5C1.500
T6C1.524
T7C2.600
T8C3.200
%
G90
G05
T1
X15240Y26670
X20955Y26670
X24130Y16510
X25400Y13970
T2
X16510Y16510
X21590Y16510
X16510Y21590
X21590Y21590
X16510Y19050
X21590Y19050
T3
X7620Y26162
X7620Y24130
X7620Y22098
X7620Y20066
X10160Y25146
X10160Y23114
X10160Y21082
X10160Y19050
T4
X15240Y6350
X15240Y3810
X17780Y6350
X17780Y3810
X20320Y6350
X20320Y3810
X22860Y6350
X22860Y3810
X25400Y6350
X25400Y3810
X27940Y6350
X27940Y3810
X25400Y37465
X25400Y32385
T5
X10160Y30734
X10160Y14605
T6
X27305Y25400
X27305Y17780
X27305Y10160
X29845Y22860
X29845Y12700
X32385Y25400
X32385Y17780
X32385Y10160
X39370Y20320
X39370Y15240
X42545Y22860
X42545Y12700
T7
X5334Y29972
X5334Y15240
T8
X5080Y40640
X40640Y40640
X40640Y5080
X5080Y5080
T4
G00X31750Y32020
M15
G01X31750Y34020
M16
G05
G00X35750Y37720
M15
G01X33750Y37720
M16
G05
G00X37750Y32020
M15
G01X37750Y34020
M16
G05
T0
M30
