G04 #@! TF.GenerationSoftware,KiCad,Pcbnew,(5.1.8)-1*
G04 #@! TF.CreationDate,2022-12-13T18:59:25+09:00*
G04 #@! TF.ProjectId,DIN8RJ45,44494e38-524a-4343-952e-6b696361645f,rev?*
G04 #@! TF.SameCoordinates,PX9157080PY791ddc0*
G04 #@! TF.FileFunction,Soldermask,Top*
G04 #@! TF.FilePolarity,Negative*
%FSLAX46Y46*%
G04 Gerber Fmt 4.6, Leading zero omitted, Abs format (unit mm)*
G04 Created by KiCad (PCBNEW (5.1.8)-1) date 2022-12-13 18:59:25*
%MOMM*%
%LPD*%
G01*
G04 APERTURE LIST*
%ADD10C,2.000000*%
%ADD11C,1.500000*%
%ADD12R,1.500000X1.500000*%
%ADD13C,3.000000*%
%ADD14C,2.283000*%
%ADD15O,1.400000X1.400000*%
%ADD16C,1.400000*%
%ADD17O,2.000000X2.000000*%
%ADD18R,2.000000X2.000000*%
%ADD19O,1.700000X1.700000*%
%ADD20R,1.700000X1.700000*%
%ADD21C,3.200000*%
%ADD22R,3.500000X3.500000*%
%ADD23C,0.800000*%
G04 APERTURE END LIST*
D10*
X10160000Y30734000D03*
X10160000Y14605000D03*
D11*
X7620000Y26162000D03*
X7620000Y20066000D03*
X10160000Y21082000D03*
X7620000Y22098000D03*
X10160000Y23114000D03*
X7620000Y24130000D03*
X10160000Y25146000D03*
D12*
X10160000Y19050000D03*
D13*
X5334000Y29972000D03*
X5334000Y15240000D03*
D14*
X39370000Y20320000D03*
X39370000Y15240000D03*
X42545000Y22860000D03*
X42545000Y12700000D03*
X27305000Y17780000D03*
X27305000Y10160000D03*
X27305000Y25400000D03*
X29845000Y12700000D03*
X29845000Y22860000D03*
X32385000Y10160000D03*
X32385000Y25400000D03*
X32385000Y17780000D03*
D15*
X16510000Y21590000D03*
D16*
X21590000Y21590000D03*
D15*
X16510000Y19050000D03*
D16*
X21590000Y19050000D03*
D15*
X16510000Y16510000D03*
D16*
X21590000Y16510000D03*
D17*
X25400000Y37465000D03*
D18*
X25400000Y32385000D03*
D19*
X27940000Y6350000D03*
X27940000Y3810000D03*
X25400000Y6350000D03*
X25400000Y3810000D03*
X22860000Y6350000D03*
X22860000Y3810000D03*
X20320000Y6350000D03*
X20320000Y3810000D03*
X17780000Y6350000D03*
X17780000Y3810000D03*
X15240000Y6350000D03*
D20*
X15240000Y3810000D03*
D21*
X40640000Y40640000D03*
X5080000Y40640000D03*
X40640000Y5080000D03*
X5080000Y5080000D03*
D22*
X31750000Y33020000D03*
G36*
G01*
X39250000Y34020000D02*
X39250000Y32020000D01*
G75*
G02*
X38500000Y31270000I-750000J0D01*
G01*
X37000000Y31270000D01*
G75*
G02*
X36250000Y32020000I0J750000D01*
G01*
X36250000Y34020000D01*
G75*
G02*
X37000000Y34770000I750000J0D01*
G01*
X38500000Y34770000D01*
G75*
G02*
X39250000Y34020000I0J-750000D01*
G01*
G37*
G36*
G01*
X36500000Y38595000D02*
X36500000Y36845000D01*
G75*
G02*
X35625000Y35970000I-875000J0D01*
G01*
X33875000Y35970000D01*
G75*
G02*
X33000000Y36845000I0J875000D01*
G01*
X33000000Y38595000D01*
G75*
G02*
X33875000Y39470000I875000J0D01*
G01*
X35625000Y39470000D01*
G75*
G02*
X36500000Y38595000I0J-875000D01*
G01*
G37*
D23*
X20955000Y26670000D03*
X15240000Y26670000D03*
X24130000Y16510000D03*
X25400000Y13970000D03*
M02*
